<?xml version="1.0" standalone="no"?>
<!DOCTYPE svg PUBLIC "-//W3C//DTD SVG 20010904//EN"
 "http://www.w3.org/TR/2001/REC-SVG-20010904/DTD/svg10.dtd">
<svg version="1.0" xmlns="http://www.w3.org/2000/svg"
 width="454.000000pt" height="142.000000pt" viewBox="0 0 454.000000 142.000000"
 preserveAspectRatio="xMidYMid meet">

<g transform="translate(0.000000,142.000000) scale(0.100000,-0.100000)"
fill="#000000" stroke="none">
<path d="M774 1196 c-42 -19 -64 -52 -64 -99 0 -31 7 -46 34 -73 38 -38 77
-44 126 -19 37 19 50 43 50 94 0 76 -77 127 -146 97z m85 -21 c82 -42 48 -165
-45 -165 -45 0 -84 42 -84 90 0 30 6 44 31 64 35 30 58 32 98 11z"/>
<path d="M1350 1193 c-40 -21 -60 -54 -60 -101 0 -47 55 -102 101 -102 83 0
139 81 105 151 -28 59 -88 81 -146 52z m114 -33 c32 -31 28 -96 -7 -126 -39
-33 -81 -31 -118 5 -40 40 -39 82 1 123 27 26 36 30 67 25 20 -4 46 -16 57
-27z"/>
<path d="M1053 1075 c-34 -14 -63 -59 -63 -97 0 -34 36 -87 68 -99 37 -14 90
-4 118 22 53 50 36 147 -31 175 -42 17 -51 17 -92 -1z m115 -41 c29 -33 28
-75 -4 -113 -69 -82 -199 20 -138 107 34 48 102 51 142 6z"/>
<path d="M730 943 c-100 -5 -110 -16 -110 -125 0 -50 4 -77 10 -73 6 3 10 39
10 80 0 92 13 105 107 105 l63 0 2 -57 1 -58 6 55 6 55 75 6 75 5 -65 2 c-36
1 -74 4 -85 5 -11 2 -54 2 -95 0z"/>
<path d="M1310 939 l-85 -5 83 -2 82 -2 0 -56 c0 -34 4 -53 10 -49 6 3 10 28
10 56 l0 49 65 0 c53 0 69 -4 86 -21 20 -20 21 -28 16 -213 -6 -246 -25 -304
-135 -413 -175 -173 -452 -171 -627 4 -77 77 -108 139 -124 251 -7 50 -7 52
16 52 13 0 23 5 23 10 0 6 -20 10 -45 10 -25 0 -45 2 -45 5 0 6 81 115 85 115
2 0 27 -32 56 -71 29 -40 55 -67 57 -61 3 9 -104 162 -114 162 -9 0 -122 -158
-117 -164 4 -3 16 -6 29 -6 19 0 23 -8 34 -66 28 -149 122 -274 254 -340 139
-68 273 -68 413 1 92 46 163 116 208 209 46 93 55 148 55 332 0 163 -8 201
-44 209 -39 8 -160 10 -246 4z"/>
<path d="M1805 848 c-3 -8 -4 -95 -3 -193 l3 -180 70 0 c66 0 70 1 73 24 4 29
-12 41 -55 41 -32 0 -33 1 -33 44 0 43 1 45 33 48 28 3 32 6 32 33 0 27 -4 30
-33 33 -33 3 -33 4 -30 50 l3 47 43 3 c40 3 43 5 40 30 -3 26 -6 27 -71 30
-49 2 -69 -1 -72 -10z"/>
<path d="M2255 848 c-3 -8 -4 -95 -3 -193 l3 -180 25 0 25 0 0 190 c0 190 0
190 -23 193 -12 2 -24 -3 -27 -10z"/>
<path d="M2377 854 c-4 -4 -7 -18 -7 -30 0 -20 6 -23 43 -26 l42 -3 5 -160 5
-160 25 0 25 0 5 160 5 160 43 3 c40 3 43 5 40 30 l-3 27 -111 3 c-60 1 -113
-1 -117 -4z"/>
<path d="M2675 848 c-3 -8 -4 -95 -3 -193 l3 -180 70 0 c66 0 70 1 73 24 4 29
-12 41 -55 41 -32 0 -33 1 -33 45 0 43 1 45 30 45 55 0 51 62 -4 68 -26 3 -27
6 -24 50 l3 47 43 3 c40 3 43 5 40 30 -3 26 -6 27 -71 30 -49 2 -69 -1 -72
-10z"/>
<path d="M3075 848 c-3 -8 -4 -95 -3 -193 3 -172 4 -180 23 -180 18 0 20 8 23
93 1 50 7 92 11 92 5 0 25 -39 44 -87 38 -95 55 -115 81 -94 14 12 16 39 14
195 l-3 181 -27 3 -28 3 -1 -103 -1 -103 -34 75 c-18 41 -40 86 -47 100 -14
28 -44 38 -52 18z"/>
<path d="M3352 668 l3 -193 70 0 c66 0 70 1 73 24 4 29 -12 41 -55 41 -32 0
-33 1 -33 45 0 44 1 45 31 45 28 0 30 2 27 33 -2 27 -8 33 -31 35 -27 3 -28 6
-25 50 3 47 3 47 43 52 35 4 40 8 40 30 0 24 -3 25 -73 28 l-72 3 2 -193z"/>
<path d="M3567 854 c-4 -4 -7 -18 -7 -31 0 -20 5 -23 40 -23 l40 0 0 -154 c0
-162 5 -182 47 -174 16 3 19 19 23 163 l5 160 40 5 c35 4 40 8 40 30 0 25 0
25 -111 28 -60 1 -113 -1 -117 -4z"/>
<path d="M2032 663 l3 -188 73 -3 72 -3 0 30 c0 31 -5 34 -64 43 -17 3 -18 13
-17 138 1 75 -1 144 -5 153 -4 11 -17 17 -35 17 l-29 0 2 -187z"/>
<path d="M1030 822 c-90 -3 -105 -8 -118 -37 -15 -32 -17 -295 -2 -295 6 0 10
53 10 140 0 173 4 180 105 180 l65 0 0 -49 c0 -28 5 -53 10 -56 6 -4 10 15 10
49 l0 56 63 0 c105 0 107 -4 107 -176 0 -89 4 -144 10 -144 15 0 13 263 -2
295 -6 14 -21 27 -32 30 -31 6 -152 10 -226 7z"/>
<path d="M773 557 c12 -118 81 -219 189 -278 60 -32 68 -34 163 -34 87 0 107
3 156 26 116 54 196 164 207 281 4 45 2 59 -6 54 -7 -4 -12 -22 -12 -41 0
-106 -102 -242 -213 -283 -77 -29 -176 -29 -254 -1 -110 41 -213 178 -213 284
0 19 -5 37 -12 41 -8 5 -10 -8 -5 -49z"/>
</g>
</svg>
